# xmcd
#
# Track frame offsets:
#	150
#	12637
#	22963
#	33043
#	43234
#	53390
#	63444
#	74568
#	83740
#	93796
#	106808
#	118913
#	141098
#	149822
#	164116
#	178032
#	188049
#	198808
#	212622
#	223998
#	235670
#	244697
#	258137
#	270195
#	282051
#	295236
#	308913
#	321596
#
# Disc length: 4408 seconds
#
# Revision: 1
# Processed by: cddbd v1.5.2PL0 Copyright (c) Steve Scherf et al.
# Submitted via: audiograbber 1.82.02
#
DISCID=9d11361c
DTITLE=Patsy Cline - The Patsy Cline Collection - Disc 3
DYEAR=1991
DGENRE=Country
TTITLE0=Crazy
TTITLE1=Who Can I Count On 
TTITLE2=Seven Lonely Days 
TTITLE3=I Love You So Much It Hurts 
TTITLE4=Foolin' 'Round 
TTITLE5=Have You Ever Been Lonely (Have You Ever Been Blue) 
TTITLE6=South Of The Border (Down Mexico Way) 
TTITLE7=Walkin' After Midnight 
TTITLE8=Strange
TTITLE9=You're Stronger Than Me 
TTITLE10=Come On In (And Make Yourself At Home) (Live)
TTITLE11=A Poor Man's Roses (Or A Rich Man's Gold) (Live)
TTITLE12=Bill Bailey, Won't You Please Come Home (Live)
TTITLE13=She's Got You 
TTITLE14=You Made Me Love You (I Didn't Want To Do It)
TTITLE15=You Belong To Me 
TTITLE16=Heartaches 
TTITLE17=Your Cheatin' Heart 
TTITLE18=That's My Desire 
TTITLE19=Half As Much 
TTITLE20=Lonely Street 
TTITLE21=Anytime
TTITLE22=You Were Only Fooling (While I Was Falling In Love)
TTITLE23=Can't Help It (If I'm Still In Love With You)
TTITLE24=You're Stronger Than Me 
TTITLE25=When I Get Thru With You (You'll Love Me Too)
TTITLE26=Imagine That 
TTITLE27=So Wrong 
EXTD=Summited BY - Dream`Master
EXTT0=
EXTT1=
EXTT2=
EXTT3=
EXTT4=
EXTT5=
EXTT6=
EXTT7=
EXTT8=
EXTT9=
EXTT10=
EXTT11=
EXTT12=
EXTT13=
EXTT14=
EXTT15=
EXTT16=
EXTT17=
EXTT18=
EXTT19=
EXTT20=
EXTT21=
EXTT22=
EXTT23=
EXTT24=
EXTT25=
EXTT26=
EXTT27=
PLAYORDER=
